# xmcd
#
# Track frame offsets:
#	150
#	18316
#	36667
#	51839
#	70764
#	84841
#	101273
#	115782
#	131203
#	146887
#
# Disc length: 2185 seconds
#
# Revision: 0
# Processed by: cddbd v1.5.2PL0 Copyright (c) Steve Scherf et al.
# Submitted via: EasyCDDAExtractor 15.3.0.1
#
DISCID=8808870a
DTITLE=Matti and Teppo - El‰m‰ On T‰ynn‰ Nostalgiaa 2017
DYEAR=2017
DGENRE=Suomi Iskelm‰
TTITLE0=Synnyinmaa
TTITLE1=Nostalgiaa
TTITLE2=Mink‰ Sille S‰ Voit
TTITLE3=Viel‰ Yksi Rakkauslaulu
TTITLE4=Tanssi Kanssani
TTITLE5=Liian Hyv‰‰ Ollakseen Totta
TTITLE6=Unelmille Tilaa
TTITLE7=Rakastavaiset
TTITLE8=Pelkk‰‰ Ilmaa
TTITLE9=Suoraan Sun Luo
EXTD=
EXTT0=
EXTT1=
EXTT2=
EXTT3=
EXTT4=
EXTT5=
EXTT6=
EXTT7=
EXTT8=
EXTT9=
PLAYORDER=
